<?xml version="1.0" encoding="UTF-8"?>
<svg width="78px" height="71px" viewBox="0 0 78 71" version="1.1" xmlns="http://www.w3.org/2000/svg" xmlns:xlink="http://www.w3.org/1999/xlink">
    <!-- Generator: Sketch 53 (72520) - https://sketchapp.com -->
    <title>noun_like_1446449</title>
    <desc>Created with Sketch.</desc>
    <g id="Page-1" stroke="none" stroke-width="1" fill="none" fill-rule="evenodd">
        <g id="Desktop" transform="translate(-874.000000, -635.000000)" fill="#000000" fill-rule="nonzero">
            <g id="noun_like_1446449" transform="translate(874.000000, 635.000000)">
                <path d="M39.016,70.266 L7.128,38.266 C-1.479,29.658 -1.479,15.647 7.131,7.037 C11.302,2.866 16.847,0.569 22.745,0.569 C28.644,0.569 34.19,2.866 38.361,7.038 L39.001,7.677 L39.64,7.038 C43.811,2.866 49.357,0.569 55.256,0.569 C61.154,0.569 66.699,2.866 70.87,7.037 C79.48,15.647 79.48,29.658 70.87,38.268 L39.016,70.266 Z M22.745,4.568 C17.915,4.568 13.374,6.449 9.959,9.864 C2.908,16.915 2.908,28.388 9.959,35.439 L39.014,64.597 L68.039,35.442 C75.093,28.388 75.093,16.915 68.042,9.864 C64.627,6.449 60.086,4.568 55.256,4.568 C50.426,4.568 45.884,6.449 42.468,9.865 L39.001,13.332 L35.533,9.865 C32.117,6.449 27.575,4.568 22.745,4.568 Z" id="Shape"></path>
            </g>
        </g>
    </g>
</svg>