<?xml version="1.0" encoding="UTF-8"?>
<svg width="54px" height="67px" viewBox="0 0 54 67" version="1.1" xmlns="http://www.w3.org/2000/svg" xmlns:xlink="http://www.w3.org/1999/xlink">
    <!-- Generator: Sketch 53 (72520) - https://sketchapp.com -->
    <title>noun_map pin_1446385 (1)</title>
    <desc>Created with Sketch.</desc>
    <g id="Page-1" stroke="none" stroke-width="1" fill="none" fill-rule="evenodd">
        <g id="Desktop" transform="translate(-1171.000000, -128.000000)" fill="#000000" fill-rule="nonzero">
            <g id="noun_map-pin_1446385-(1)" transform="translate(1171.000000, 128.000000)">
                <path d="M27,0.833 C12.479,0.833 0.666,12.646 0.666,27.167 C0.666,49.507 24.895,65.197 25.926,65.854 L27.029,66.557 L28.115,65.828 C29.145,65.137 53.335,48.653 53.335,27.167 C53.334,12.646 41.521,0.833 27,0.833 Z M26.973,61.727 C22.335,58.445 4.666,44.779 4.666,27.167 C4.666,14.852 14.685,4.833 27,4.833 C39.315,4.833 49.334,14.852 49.334,27.167 C49.334,44.076 31.595,58.307 26.973,61.727 Z M27,15.333 C21.026,15.333 16.167,20.193 16.167,26.166 C16.167,32.14 21.026,37 27,37 C32.974,37 37.833,32.14 37.833,26.167 C37.833,20.193 32.974,15.333 27,15.333 Z M27,33 C23.232,33 20.167,29.935 20.167,26.167 C20.167,22.399 23.232,19.334 27,19.334 C30.768,19.334 33.833,22.399 33.833,26.167 C33.833,29.935 30.768,33 27,33 Z" id="Shape"></path>
            </g>
        </g>
    </g>
</svg>