<?xml version="1.0" encoding="UTF-8"?>
<svg width="78px" height="60px" viewBox="0 0 78 60" version="1.1" xmlns="http://www.w3.org/2000/svg" xmlns:xlink="http://www.w3.org/1999/xlink">
    <!-- Generator: Sketch 53 (72520) - https://sketchapp.com -->
    <title>noun_Email_1446373</title>
    <desc>Created with Sketch.</desc>
    <g id="Page-1" stroke="none" stroke-width="1" fill="none" fill-rule="evenodd">
        <g id="Desktop" transform="translate(-1046.000000, -298.000000)" fill="#000000" fill-rule="nonzero">
            <g id="noun_Email_1446373" transform="translate(1046.000000, 298.000000)">
                <path d="M70.25,0 L7.75,0 C3.891,0 0.75,3.14 0.75,7 L0.75,53 C0.75,56.86 3.891,60 7.75,60 L70.25,60 C74.109,60 77.25,56.86 77.25,53 L77.25,7 C77.25,3.14 74.109,0 70.25,0 Z M70.25,4 C70.979,4 71.638,4.271 72.157,4.704 L39,30.467 L5.843,4.704 C6.363,4.271 7.022,4 7.75,4 L70.25,4 Z M70.25,56 L7.75,56 C6.096,56 4.75,54.654 4.75,53 L4.75,8.92 L39,35.533 L73.25,8.921 L73.25,53 C73.25,54.654 71.904,56 70.25,56 Z" id="Shape"></path>
            </g>
        </g>
    </g>
</svg>