<?xml version="1.0" encoding="UTF-8"?>
<svg width="56px" height="64px" viewBox="0 0 56 64" version="1.1" xmlns="http://www.w3.org/2000/svg" xmlns:xlink="http://www.w3.org/1999/xlink">
    <!-- Generator: Sketch 53 (72520) - https://sketchapp.com -->
    <title>noun_my profile_1446388</title>
    <desc>Created with Sketch.</desc>
    <g id="Page-1" stroke="none" stroke-width="1" fill="none" fill-rule="evenodd">
        <g id="Desktop" transform="translate(-1144.000000, -627.000000)" fill="#000000" fill-rule="nonzero">
            <g id="noun_my-profile_1446388" transform="translate(1144.000000, 627.000000)">
                <path d="M28,32.829 C36.797,32.829 43.954,25.672 43.954,16.876 C43.954,8.079 36.797,0.922 28,0.922 C19.203,0.922 12.046,8.079 12.046,16.876 C12.046,25.672 19.203,32.829 28,32.829 Z M28,4.922 C34.592,4.922 39.954,10.284 39.954,16.876 C39.954,23.467 34.592,28.829 28,28.829 C21.408,28.829 16.046,23.467 16.046,16.876 C16.046,10.285 21.408,4.922 28,4.922 Z M55.11,60.616 C51.964,47.348 40.815,38.081 28,38.081 C15.185,38.081 4.036,47.348 0.89,60.616 L0.307,63.077 L55.694,63.077 L55.11,60.616 Z M5.487,59.078 C8.906,48.953 17.85,42.081 28,42.081 C38.15,42.081 47.094,48.953 50.513,59.078 L5.487,59.078 Z" id="Shape"></path>
            </g>
        </g>
    </g>
</svg>