<?xml version="1.0" encoding="UTF-8"?>
<svg width="60px" height="61px" viewBox="0 0 60 61" version="1.1" xmlns="http://www.w3.org/2000/svg" xmlns:xlink="http://www.w3.org/1999/xlink">
    <!-- Generator: Sketch 53 (72520) - https://sketchapp.com -->
    <title>noun_find_1446375</title>
    <desc>Created with Sketch.</desc>
    <g id="Page-1" stroke="none" stroke-width="1" fill="none" fill-rule="evenodd">
        <g id="Desktop" transform="translate(-943.000000, -156.000000)" fill="#000000" fill-rule="nonzero">
            <g id="noun_find_1446375" transform="translate(943.000000, 156.000000)">
                <path d="M59.344,57.987 L44.235,42.877 C53.183,32.944 52.878,17.579 43.317,8.019 C38.532,3.234 32.171,0.599 25.404,0.599 C18.636,0.599 12.275,3.234 7.49,8.019 C2.705,12.804 0.07,19.165 0.07,25.933 C0.071,32.7 2.706,39.061 7.491,43.846 C12.275,48.631 18.637,51.266 25.403,51.266 C31.272,51.266 36.837,49.28 41.332,45.631 L56.517,60.816 L59.344,57.987 Z M10.318,41.017 C6.289,36.987 4.069,31.63 4.069,25.932 C4.069,20.234 6.288,14.876 10.317,10.847 C14.346,6.818 19.704,4.598 25.403,4.598 C31.101,4.598 36.459,6.817 40.488,10.847 C48.805,19.164 48.805,32.699 40.488,41.017 C36.458,45.046 31.1,47.266 25.402,47.266 C19.704,47.266 14.348,45.046 10.318,41.017 Z" id="Shape"></path>
            </g>
        </g>
    </g>
</svg>