<?xml version="1.0" encoding="UTF-8"?>
<svg width="68px" height="68px" viewBox="0 0 68 68" version="1.1" xmlns="http://www.w3.org/2000/svg" xmlns:xlink="http://www.w3.org/1999/xlink">
    <!-- Generator: Sketch 53 (72520) - https://sketchapp.com -->
    <title>noun_Time_1446405</title>
    <desc>Created with Sketch.</desc>
    <g id="Page-1" stroke="none" stroke-width="1" fill="none" fill-rule="evenodd">
        <g id="Desktop" transform="translate(-1013.000000, -499.000000)" fill="#000000" fill-rule="nonzero">
            <g id="noun_Time_1446405" transform="translate(1013.000000, 499.000000)">
                <path d="M34,0.917 C15.758,0.917 0.916,15.758 0.916,34 C0.916,52.242 15.758,67.083 34,67.083 C52.242,67.083 67.084,52.242 67.084,34 C67.084,15.758 52.242,0.917 34,0.917 Z M34,63.083 C17.963,63.083 4.916,50.037 4.916,34 C4.916,17.963 17.963,4.917 34,4.917 C50.037,4.917 63.084,17.963 63.084,34 C63.084,50.037 50.037,63.083 34,63.083 Z M34,12.045 L30,12.045 L30,38 L51,38 L51,34 L34,34 L34,12.045 Z" id="Shape"></path>
            </g>
        </g>
    </g>
</svg>